<?xml version="1.0" encoding="UTF-8"?>
<svg id="Layer_1" xmlns="http://www.w3.org/2000/svg" version="1.1" viewBox="0 0 1179 2556">
  <!-- Generator: Adobe Illustrator 29.3.1, SVG Export Plug-In . SVG Version: 2.1.0 Build 151)  -->
  <defs>
    <style>
      .st0 {
        fill: #009245;
      }

      .st1 {
        fill: #39b54a;
      }

      .st2 {
        fill: #006837;
      }
    </style>
  </defs>
  <rect class="st1" x="-71.08" y="-43.01" width="1295.18" height="2642.03"/>
  <g>
    <path class="st0" d="M44.18,166.38s49.39-98.94,199.9-115.52c10.57-1.16,14.54,13.4,4.68,17.38-42.34,17.11-94.32,44.51-102.1,78.08,0,0,83.72-47.27,160.5-68.5,10.19-2.82,16,11.55,6.72,16.62-18.65,10.2-37.12,24.7-51.12,45.27-5.09,7.48,2.6,17.13,10.95,13.63,39.18-16.41,118.91-45.32,182.39-39.46,10.7.99,11.12,16.44.51,18.09-47.62,7.42-115.51,23.12-111.34,51.99"/>
    <path class="st2" d="M335.97,185.31c-4.2-29.02,34.79-49.51,119.19-62.65-60.75-5.03-137.49,22.47-177.82,39.35-7.56,3.11-16.15,1.03-21.37-5.34-5.27-6.44-5.66-15.39-1-22.27,13.3-19.52,31.59-35.74,54.38-48.23-74.44,21.38-157.25,67.88-158.07,68.33l-18.61,10.52,4.82-20.84c6.99-30.1,43.24-58.6,107.74-84.68C101.96,75.98,53.06,169.66,52.59,170.61l-16.83-8.43c2.11-4.22,53.45-103.73,207.29-120.67,9.56-1.37,17.89,4.84,20.19,13.99,2.3,9.1-2.21,17.94-10.96,21.47-35.01,14.15-61.46,29.21-77.85,44.11,31.66-15.88,81.95-38.99,130.22-52.32,9.13-2.57,18.32,2.05,21.89,10.89,3.58,8.82.14,18.51-8.15,23.05-20.16,11.02-36.26,25.27-47.85,42.31,41.48-17.91,121.51-46.41,186.42-40.49,9.43.87,16.48,8.37,16.78,17.84.3,9.49-6.3,17.45-15.69,18.91-79,12.3-105.11,29.96-103.47,41.35l-18.61,2.7Z"/>
  </g>
  <g>
    <path class="st0" d="M794.52,976.29s49.39-98.94,199.9-115.52c10.57-1.16,14.54,13.4,4.68,17.38-42.34,17.11-94.32,44.51-102.1,78.08,0,0,83.72-47.27,160.5-68.5,10.19-2.82,16,11.55,6.72,16.62-18.65,10.2-37.12,24.7-51.12,45.27-5.09,7.48,2.6,17.13,10.95,13.63,39.18-16.41,118.91-45.32,182.39-39.46,10.7.99,11.12,16.44.51,18.09-47.62,7.42-115.51,23.12-111.34,51.99"/>
    <path class="st2" d="M1086.32,995.21c-4.2-29.02,34.79-49.51,119.19-62.65-60.75-5.03-137.49,22.47-177.82,39.35-7.56,3.11-16.15,1.03-21.37-5.34-5.27-6.44-5.66-15.39-1-22.27,13.3-19.52,31.59-35.74,54.38-48.23-74.44,21.38-157.25,67.88-158.07,68.33l-18.61,10.52,4.82-20.84c6.99-30.1,43.24-58.6,107.74-84.68-143.28,16.48-192.17,110.16-192.64,111.11l-16.83-8.43c2.11-4.22,53.45-103.73,207.29-120.67,9.56-1.37,17.89,4.84,20.19,13.99,2.3,9.1-2.21,17.94-10.96,21.47-35.01,14.15-61.46,29.21-77.85,44.11,31.66-15.88,81.95-38.99,130.22-52.32,9.13-2.57,18.32,2.05,21.89,10.89,3.58,8.82.14,18.51-8.15,23.05-20.16,11.02-36.26,25.27-47.85,42.31,41.48-17.91,121.51-46.41,186.42-40.49,9.43.87,16.48,8.37,16.78,17.84.3,9.49-6.3,17.45-15.69,18.91-79,12.3-105.11,29.96-103.47,41.35l-18.61,2.7Z"/>
  </g>
  <g>
    <path class="st0" d="M-210.58,1384.19s49.39-98.94,199.9-115.52c10.57-1.16,14.54,13.4,4.68,17.38-42.34,17.11-94.32,44.51-102.1,78.08,0,0,83.72-47.27,160.5-68.5,10.19-2.82,16,11.55,6.72,16.62-18.65,10.2-37.12,24.7-51.12,45.27-5.09,7.48,2.6,17.13,10.95,13.63,39.18-16.41,118.91-45.32,182.39-39.46,10.7.99,11.12,16.44.51,18.09-47.62,7.42-115.51,23.12-111.34,51.99"/>
    <path class="st2" d="M81.21,1403.11c-4.2-29.02,34.79-49.51,119.19-62.65-60.75-5.03-137.49,22.47-177.82,39.35-7.56,3.11-16.15,1.03-21.37-5.34-5.27-6.44-5.66-15.39-1-22.27,13.3-19.52,31.59-35.74,54.38-48.23-74.44,21.38-157.25,67.88-158.07,68.33l-18.61,10.52,4.82-20.84c6.99-30.1,43.24-58.6,107.74-84.68-143.28,16.48-192.17,110.16-192.64,111.11l-16.83-8.43c2.11-4.22,53.45-103.73,207.29-120.67,9.56-1.37,17.89,4.84,20.19,13.99,2.3,9.1-2.21,17.94-10.96,21.47-35.01,14.15-61.46,29.21-77.85,44.11,31.66-15.88,81.95-38.99,130.22-52.32,9.13-2.57,18.32,2.05,21.89,10.89,3.58,8.82.14,18.51-8.15,23.05-20.16,11.02-36.26,25.27-47.85,42.31,41.48-17.91,121.51-46.41,186.42-40.49,9.43.87,16.48,8.37,16.78,17.84.3,9.49-6.3,17.45-15.69,18.91-79,12.3-105.11,29.96-103.47,41.35l-18.61,2.7Z"/>
  </g>
  <g>
    <path class="st0" d="M968.42,1900.34s49.39-98.94,199.9-115.52c10.57-1.16,14.54,13.4,4.68,17.38-42.34,17.11-94.32,44.51-102.1,78.08,0,0,83.72-47.27,160.5-68.5,10.19-2.82,16,11.55,6.72,16.62-18.65,10.2-37.12,24.7-51.12,45.27-5.09,7.48,2.6,17.13,10.95,13.63,39.18-16.41,118.91-45.32,182.39-39.46,10.7.99,11.12,16.44.51,18.09-47.62,7.42-115.51,23.12-111.34,51.99"/>
    <path class="st2" d="M1260.21,1919.27c-4.2-29.02,34.79-49.51,119.19-62.65-60.75-5.03-137.49,22.47-177.82,39.35-7.56,3.11-16.15,1.03-21.37-5.34-5.27-6.44-5.66-15.39-1-22.27,13.3-19.52,31.59-35.74,54.38-48.23-74.44,21.38-157.25,67.88-158.07,68.33l-18.61,10.52,4.82-20.84c6.99-30.1,43.24-58.6,107.74-84.68-143.28,16.48-192.17,110.16-192.64,111.11l-16.83-8.43c2.11-4.22,53.45-103.73,207.29-120.67,9.56-1.37,17.89,4.84,20.19,13.99,2.3,9.1-2.21,17.94-10.96,21.47-35.01,14.15-61.46,29.21-77.85,44.11,31.66-15.88,81.95-38.99,130.22-52.32,9.13-2.57,18.32,2.05,21.89,10.89,3.58,8.82.14,18.51-8.15,23.05-20.16,11.02-36.26,25.27-47.85,42.31,41.48-17.91,121.51-46.41,186.42-40.49,9.43.87,16.48,8.37,16.78,17.84.3,9.49-6.3,17.45-15.69,18.91-79,12.3-105.11,29.96-103.47,41.35l-18.61,2.7Z"/>
  </g>
  <g>
    <path class="st0" d="M-166.4,2362.42s49.39-98.94,199.9-115.52c10.57-1.16,14.54,13.4,4.68,17.38-42.34,17.11-94.32,44.51-102.1,78.08,0,0,83.72-47.27,160.5-68.5,10.19-2.82,16,11.55,6.72,16.62-18.65,10.2-37.12,24.7-51.12,45.27-5.09,7.48,2.6,17.13,10.95,13.63,39.18-16.41,118.91-45.32,182.39-39.46,10.7.99,11.12,16.44.51,18.09-47.62,7.42-115.51,23.12-111.34,51.99"/>
    <path class="st2" d="M125.39,2381.35c-4.2-29.02,34.79-49.51,119.19-62.65-60.75-5.03-137.49,22.47-177.82,39.35-7.56,3.11-16.15,1.03-21.37-5.34-5.27-6.44-5.66-15.39-1-22.27,13.3-19.52,31.59-35.74,54.38-48.23-74.44,21.38-157.25,67.88-158.07,68.33l-18.61,10.52,4.82-20.84c6.99-30.1,43.24-58.6,107.74-84.68-143.28,16.48-192.17,110.16-192.64,111.11l-16.83-8.43c2.11-4.22,53.45-103.73,207.29-120.67,9.56-1.37,17.89,4.84,20.19,13.99,2.3,9.1-2.21,17.94-10.96,21.47-35.01,14.15-61.46,29.21-77.85,44.11,31.66-15.88,81.95-38.99,130.22-52.32,9.13-2.57,18.32,2.05,21.89,10.89,3.58,8.82.14,18.51-8.15,23.05-20.16,11.02-36.26,25.27-47.85,42.31,41.48-17.91,121.51-46.41,186.42-40.49,9.43.87,16.48,8.37,16.78,17.84.3,9.49-6.3,17.45-15.69,18.91-79,12.3-105.11,29.96-103.47,41.35l-18.61,2.7Z"/>
  </g>
  <g>
    <path class="st0" d="M880.34,2469.41s49.39-98.94,199.9-115.52c10.57-1.16,14.54,13.4,4.68,17.38-42.34,17.11-94.32,44.51-102.1,78.08,0,0,83.72-47.27,160.5-68.5,10.19-2.82,16,11.55,6.72,16.62-18.65,10.2-37.12,24.7-51.12,45.27-5.09,7.48,2.6,17.13,10.95,13.63,39.18-16.41,118.91-45.32,182.39-39.46,10.7.99,11.12,16.44.51,18.09-47.62,7.42-115.51,23.12-111.34,51.99"/>
    <path class="st2" d="M1172.14,2488.34c-4.2-29.02,34.79-49.51,119.19-62.65-60.75-5.03-137.49,22.47-177.82,39.35-7.56,3.11-16.15,1.03-21.37-5.34-5.27-6.44-5.66-15.39-1-22.27,13.3-19.52,31.59-35.74,54.38-48.23-74.44,21.38-157.25,67.88-158.07,68.33l-18.61,10.52,4.82-20.84c6.99-30.1,43.24-58.6,107.74-84.68-143.28,16.48-192.17,110.16-192.64,111.11l-16.83-8.43c2.11-4.22,53.45-103.73,207.29-120.67,9.56-1.37,17.89,4.84,20.19,13.99,2.3,9.1-2.21,17.94-10.96,21.47-35.01,14.15-61.46,29.21-77.85,44.11,31.66-15.88,81.95-38.99,130.22-52.32,9.13-2.57,18.32,2.05,21.89,10.89,3.58,8.82.14,18.51-8.15,23.05-20.16,11.02-36.26,25.27-47.85,42.31,41.48-17.91,121.51-46.41,186.42-40.49,9.43.87,16.48,8.37,16.78,17.84.3,9.49-6.3,17.45-15.69,18.91-79,12.3-105.11,29.96-103.47,41.35l-18.61,2.7Z"/>
  </g>
  <g>
    <path class="st0" d="M888.76,170.44s49.39-98.94,199.9-115.52c10.57-1.16,14.54,13.4,4.68,17.38-42.34,17.11-94.32,44.51-102.1,78.08,0,0,83.72-47.27,160.5-68.5,10.19-2.82,16,11.55,6.72,16.62-18.65,10.2-37.12,24.7-51.12,45.27-5.09,7.48,2.6,17.13,10.95,13.63,39.18-16.41,118.91-45.32,182.39-39.46,10.7.99,11.12,16.44.51,18.09-47.62,7.42-115.51,23.12-111.34,51.99"/>
    <path class="st2" d="M1180.55,189.37c-4.2-29.02,34.79-49.51,119.19-62.65-60.75-5.03-137.49,22.47-177.82,39.35-7.56,3.11-16.15,1.03-21.37-5.34-5.27-6.44-5.66-15.39-1-22.27,13.3-19.52,31.59-35.74,54.38-48.23-74.44,21.38-157.25,67.88-158.07,68.33l-18.61,10.52,4.82-20.84c6.99-30.1,43.24-58.6,107.74-84.68-143.28,16.48-192.17,110.16-192.64,111.11l-16.83-8.43c2.11-4.22,53.45-103.73,207.29-120.67,9.56-1.37,17.89,4.84,20.19,13.99,2.3,9.1-2.21,17.94-10.96,21.47-35.01,14.15-61.46,29.21-77.85,44.11,31.66-15.88,81.95-38.99,130.22-52.32,9.13-2.57,18.32,2.05,21.89,10.89,3.58,8.82.14,18.51-8.15,23.05-20.16,11.02-36.26,25.27-47.85,42.31,41.48-17.91,121.51-46.41,186.42-40.49,9.43.87,16.48,8.37,16.78,17.84.3,9.49-6.3,17.45-15.69,18.91-79,12.3-105.11,29.96-103.47,41.35l-18.61,2.7Z"/>
  </g>
  <g>
    <path class="st0" d="M159.92,1860.3s49.39-74.69,199.9-87.21c10.57-.88,14.54,10.11,4.68,13.12-42.34,12.91-94.32,33.6-102.1,58.94,0,0,83.72-35.68,160.5-51.71,10.19-2.13,16,8.72,6.72,12.54-18.65,7.7-37.12,18.64-51.12,34.18-5.09,5.65,2.6,12.93,10.95,10.29,39.18-12.39,118.91-34.21,182.39-29.79,10.7.75,11.12,12.41.51,13.66-47.62,5.6-115.51,17.45-111.34,39.25"/>
    <path class="st2" d="M451.72,1874.59c-4.2-21.9,34.79-37.37,119.19-47.29-60.75-3.8-137.49,16.96-177.82,29.71-7.56,2.35-16.15.77-21.37-4.03-5.27-4.86-5.66-11.62-1-16.81,13.3-14.73,31.59-26.98,54.38-36.41-74.44,16.14-157.25,51.24-158.07,51.59l-18.61,7.94,4.82-15.73c6.99-22.73,43.24-44.24,107.74-63.93-143.28,12.44-192.17,83.16-192.64,83.88l-16.83-6.37c2.11-3.19,53.45-78.31,207.29-91.1,9.56-1.04,17.89,3.65,20.19,10.56,2.3,6.87-2.21,13.54-10.96,16.21-35.01,10.68-61.46,22.05-77.85,33.3,31.66-11.99,81.95-29.43,130.22-39.5,9.13-1.94,18.32,1.55,21.89,8.22,3.58,6.66.14,13.97-8.15,17.4-20.16,8.32-36.26,19.08-47.85,31.94,41.48-13.52,121.51-35.04,186.42-30.57,9.43.66,16.48,6.32,16.78,13.47.3,7.17-6.3,13.17-15.69,14.28-79,9.28-105.11,22.62-103.47,31.22l-18.61,2.04Z"/>
  </g>
  <g>
    <path class="st0" d="M109.06,662.38s49.39-98.94,199.9-115.52c10.57-1.16,14.54,13.4,4.68,17.38-42.34,17.11-94.32,44.51-102.1,78.08,0,0,83.72-47.27,160.5-68.5,10.19-2.82,16,11.55,6.72,16.62-18.65,10.2-37.12,24.7-51.12,45.27-5.09,7.48,2.6,17.13,10.95,13.63,39.18-16.41,118.91-45.32,182.39-39.46,10.7.99,11.12,16.44.51,18.09-47.62,7.42-115.51,23.12-111.34,51.99"/>
    <path class="st2" d="M400.85,681.31c-4.2-29.02,34.79-49.51,119.19-62.65-60.75-5.03-137.49,22.47-177.82,39.35-7.56,3.11-16.15,1.03-21.37-5.34-5.27-6.44-5.66-15.39-1-22.27,13.3-19.52,31.59-35.74,54.38-48.23-74.44,21.38-157.25,67.88-158.07,68.33l-18.61,10.52,4.82-20.84c6.99-30.1,43.24-58.6,107.74-84.68-143.28,16.48-192.17,110.16-192.64,111.11l-16.83-8.43c2.11-4.22,53.45-103.73,207.29-120.67,9.56-1.37,17.89,4.84,20.19,13.99,2.3,9.1-2.21,17.94-10.96,21.47-35.01,14.15-61.46,29.21-77.85,44.11,31.66-15.88,81.95-38.99,130.22-52.32,9.13-2.57,18.32,2.05,21.89,10.89,3.58,8.82.14,18.51-8.15,23.05-20.16,11.02-36.26,25.27-47.85,42.31,41.48-17.91,121.51-46.41,186.42-40.49,9.43.87,16.48,8.37,16.78,17.84.3,9.49-6.3,17.45-15.69,18.91-79,12.3-105.11,29.96-103.47,41.35l-18.61,2.7Z"/>
  </g>
</svg>